<svg width="32" height="32" viewBox="0 0 32 32" fill="none" xmlns="http://www.w3.org/2000/svg">
<path fill-rule="evenodd" clip-rule="evenodd" d="M17.3333 1.33331H14.6667V4.07322C9.10451 4.68808 4.6881 9.10449 4.07324 14.6666H1.33333V17.3333H4.07324C4.6881 22.8955 9.10451 27.3119 14.6667 27.9267V30.6666H17.3333V27.9267C22.8955 27.3119 27.3119 22.8955 27.9268 17.3333H30.6667V14.6666H27.9268C27.3119 9.10449 22.8955 4.68808 17.3333 4.07322V1.33331ZM23.4752 21.5895C24.6421 20.0314 25.3333 18.0964 25.3333 16C25.3333 10.8453 21.1547 6.66665 16 6.66665C13.9036 6.66665 11.9685 7.35785 10.4104 8.5248L23.4752 21.5895ZM21.5896 23.4752L8.52482 10.4104C7.35787 11.9685 6.66667 13.9035 6.66667 16C6.66667 21.1546 10.8453 25.3333 16 25.3333C18.0964 25.3333 20.0315 24.6421 21.5896 23.4752Z" fill="white"/>
</svg>
