<svg width="24" height="24" viewBox="0 0 24 24" fill="none" xmlns="http://www.w3.org/2000/svg">
<path fill-rule="evenodd" clip-rule="evenodd" d="M12 3.35739C7.24995 3.35739 3.37921 7.21583 3.37921 12C3.37921 16.7842 7.24995 20.6426 12 20.6426C16.75 20.6426 20.6208 16.7842 20.6208 12C20.6208 7.21583 16.75 3.35739 12 3.35739ZM2 12C2 6.48816 6.46607 2 12 2C17.5339 2 22 6.48816 22 12C22 17.5118 17.5339 22 12 22C6.46607 22 2 17.5118 2 12ZM12.4149 8.48678L11.7476 10.2451L10.6048 8.74319L10.9051 10.6005L9.14901 9.86502L10.3465 11.3353L8.44991 11.5784L10.2354 12.2576L8.72162 13.412L10.6065 13.1066L9.87894 14.8477L11.3466 13.6496L11.5851 15.5132L12.2524 13.7549L13.3952 15.2568L13.0949 13.3995L14.851 14.1349L13.6534 12.6647L15.5501 12.4215L13.7646 11.7423L15.2783 10.5879L13.3935 10.8934L14.121 9.15225L12.6533 10.3504L12.4149 8.48678ZM11.3387 7.44322L12.1032 5.42909L13.4334 5.58181L13.7077 7.72611L15.3717 6.36773L16.4498 7.14826L15.6097 9.15856L17.7414 8.81314L18.2758 10.0193L16.5401 11.3429L18.575 12.1169L18.4155 13.423L16.2635 13.6989L17.6423 15.3917L16.8342 16.4407L14.8487 15.6092L15.1954 17.7532L13.9624 18.2667L12.6613 16.5568L11.8968 18.5709L10.5666 18.4182L10.2923 16.2739L8.62823 17.6322L7.5502 16.8517L8.39027 14.8414L6.25862 15.1868L5.7242 13.9807L7.45984 12.6571L5.42499 11.883L5.58452 10.577L7.73651 10.301L6.3577 8.60824L7.1658 7.55924L9.15123 8.39076L8.80457 6.24675L10.0376 5.73327L11.3387 7.44322Z" fill="white"/>
</svg>
