<?xml version="1.0" encoding="UTF-8" standalone="no"?>
<svg
   xmlns:dc="http://purl.org/dc/elements/1.1/"
   xmlns:cc="http://creativecommons.org/ns#"
   xmlns:rdf="http://www.w3.org/1999/02/22-rdf-syntax-ns#"
   xmlns:svg="http://www.w3.org/2000/svg"
   xmlns="http://www.w3.org/2000/svg"
   xmlns:sodipodi="http://sodipodi.sourceforge.net/DTD/sodipodi-0.dtd"
   xmlns:inkscape="http://www.inkscape.org/namespaces/inkscape"
   id="svg8"
   version="1.1"
   viewBox="0 0 10 10"
   height="10mm"
   width="10mm"
   sodipodi:docname="ind_stick.svg"
   inkscape:version="0.92.3 (2405546, 2018-03-11)">
  <sodipodi:namedview
     pagecolor="#ffffff"
     bordercolor="#666666"
     borderopacity="1"
     objecttolerance="10"
     gridtolerance="10"
     guidetolerance="10"
     inkscape:pageopacity="0"
     inkscape:pageshadow="2"
     inkscape:window-width="1853"
     inkscape:window-height="1145"
     id="namedview8"
     showgrid="false"
     units="mm"
     width="50mm"
     inkscape:zoom="26.910886"
     inkscape:cx="19.362943"
     inkscape:cy="11.657314"
     inkscape:window-x="67"
     inkscape:window-y="27"
     inkscape:window-maximized="1"
     inkscape:current-layer="layer1"
     inkscape:snap-intersection-paths="false"
     inkscape:snap-page="false" />
  <defs
     id="defs2" />
  <metadata
     id="metadata5">
    <rdf:RDF>
      <cc:Work
         rdf:about="">
        <dc:format>image/svg+xml</dc:format>
        <dc:type
           rdf:resource="http://purl.org/dc/dcmitype/StillImage" />
        <dc:title />
      </cc:Work>
    </rdf:RDF>
  </metadata>
  <g
     id="layer1"
     transform="matrix(1.2792537,0,0,1.3013407,-129.33104,-188.24368)">
    <circle
       r="3.5432525"
       style="fill:none;stroke:#000000;stroke-width:0.5;stroke-miterlimit:4;stroke-dasharray:none;stroke-opacity:1"
       cy="148.5"
       cx="105"
       id="path10-3" />
    <path
       transform="matrix(0.52042903,0,0,0.52039701,54.199699,69.351066)"
       d="m 101.34487,154.88094 -2.290592,-0.95825 0.396738,2.45105 -1.504579,-1.97517 -0.881939,2.32104 -0.31542,-2.46284 -1.924302,1.56911 0.958256,-2.29058 -2.451049,0.39673 1.975168,-1.50457 -2.32104,-0.88194 2.462835,-0.31542 -1.56911,-1.92431 2.290587,0.95826 -0.396738,-2.45105 1.504579,1.97517 0.881939,-2.32104 0.31542,2.46283 1.924297,-1.56911 -0.958252,2.29059 2.451052,-0.39674 -1.97517,1.50458 2.32104,0.88194 -2.462835,0.31542 z"
       id="path4539"
       style="fill:none;stroke:#000000;stroke-width:1;stroke-miterlimit:4;stroke-dasharray:none;stroke-opacity:1"
       inkscape:connector-curvature="0" />
  </g>
</svg>
