<svg width="32" height="32" viewBox="0 0 32 32" fill="none" xmlns="http://www.w3.org/2000/svg">
<path fill-rule="evenodd" clip-rule="evenodd" d="M15.9935 11.6746L15.4386 13.906L13.8329 12.2484L14.4673 14.4597L12.2284 13.8216L13.8959 15.4328L11.6285 16.0032L13.895 16.5688L12.2247 18.1899L14.4689 17.5456L13.8384 19.765L15.4464 18.0975L16.0065 20.3255L16.5614 18.094L18.1671 19.7516L17.5327 17.5403L19.7716 18.1784L18.1041 16.5672L20.3715 15.9968L18.105 15.4312L19.7753 13.8101L17.5311 14.4544L18.1616 12.235L16.5536 13.9025L15.9935 11.6746ZM14.5352 10.5637L15.1708 8.00756L16.8081 8L17.4526 10.5635L19.2757 8.67297L20.6979 9.4642L19.97 12.0267L22.508 11.2981L23.332 12.6849L21.417 14.5436L24 15.1882L23.996 16.797L21.4233 17.4441L23.3432 19.2993L22.5145 20.6901L19.9831 19.9686L20.7154 22.5212L19.2929 23.3235L17.4648 21.4363L16.8292 23.9924L15.1919 24L14.5474 21.4365L12.7243 23.327L11.302 22.5358L12.03 19.9733L9.49205 20.7019L8.66798 19.3151L10.583 17.4564L8 16.8118L8.00399 15.203L10.5767 14.5559L8.65678 12.7007L9.48555 11.3099L12.0169 12.0314L11.2846 9.47875L12.7071 8.67649L14.5352 10.5637Z" fill="white"/>
<path fill-rule="evenodd" clip-rule="evenodd" d="M16 29.3334C23.3638 29.3334 29.3333 23.3638 29.3333 16C29.3333 8.63622 23.3638 2.66669 16 2.66669C8.6362 2.66669 2.66667 8.63622 2.66667 16C2.66667 23.3638 8.6362 29.3334 16 29.3334ZM16 26.6667C21.891 26.6667 26.6667 21.8911 26.6667 16C26.6667 10.109 21.891 5.33335 16 5.33335C10.109 5.33335 5.33333 10.109 5.33333 16C5.33333 21.8911 10.109 26.6667 16 26.6667Z" fill="white"/>
</svg>
