<svg width="32" height="32" viewBox="0 0 32 32" fill="none" xmlns="http://www.w3.org/2000/svg">
<path fill-rule="evenodd" clip-rule="evenodd" d="M14.6667 1.33331H17.3333V4.07322C22.8955 4.68808 27.3119 9.10449 27.9268 14.6666H30.6667V17.3333H27.9268C27.3119 22.8955 22.8955 27.3119 17.3333 27.9267V30.6666H14.6667V27.9267C9.10451 27.3119 4.6881 22.8955 4.07323 17.3333H1.33333V14.6666H4.07323C4.6881 9.10449 9.10451 4.68808 14.6667 4.07322V1.33331ZM16 25.3333C21.1547 25.3333 25.3333 21.1546 25.3333 16C25.3333 10.8453 21.1547 6.66665 16 6.66665C10.8453 6.66665 6.66666 10.8453 6.66666 16C6.66666 21.1546 10.8453 25.3333 16 25.3333ZM16 20C18.2091 20 20 18.2091 20 16C20 13.7908 18.2091 12 16 12C13.7909 12 12 13.7908 12 16C12 18.2091 13.7909 20 16 20ZM16 17.3333C16.7364 17.3333 17.3333 16.7364 17.3333 16C17.3333 15.2636 16.7364 14.6666 16 14.6666C15.2636 14.6666 14.6667 15.2636 14.6667 16C14.6667 16.7364 15.2636 17.3333 16 17.3333Z" fill="white"/>
</svg>
