<svg width="32" height="32" viewBox="0 0 32 32" fill="none" xmlns="http://www.w3.org/2000/svg">
<path fill-rule="evenodd" clip-rule="evenodd" d="M6 12C9.23754 7.14614 11.3333 4.66667 16 0C20.6667 4.66667 22.8954 7.12003 26 12C25.9879 11.9922 25.9757 11.9844 25.9636 11.9767C27.2495 13.8881 28 16.1897 28 18.6667C28 25.2941 22.6274 30.6667 16 30.6667C9.37258 30.6667 4 25.2941 4 18.6667C4 16.1903 4.75013 13.8891 6.03557 11.9779C6.02372 11.9852 6.01186 11.9926 6 12ZM16 28C21.1547 28 25.3333 23.8213 25.3333 18.6667C25.3333 13.512 21.1547 9.33333 16 9.33333C10.8453 9.33333 6.66667 13.512 6.66667 18.6667C6.66667 23.8213 10.8453 28 16 28ZM16 22.6667C18.2091 22.6667 20 20.8758 20 18.6667C20 16.4575 18.2091 14.6667 16 14.6667C13.7909 14.6667 12 16.4575 12 18.6667C12 20.8758 13.7909 22.6667 16 22.6667ZM16 20C16.7364 20 17.3333 19.403 17.3333 18.6667C17.3333 17.9303 16.7364 17.3333 16 17.3333C15.2636 17.3333 14.6667 17.9303 14.6667 18.6667C14.6667 19.403 15.2636 20 16 20Z" fill="white"/>
</svg>
