<svg width="24" height="24" viewBox="0 0 24 24" fill="none" xmlns="http://www.w3.org/2000/svg">
<path fill-rule="evenodd" clip-rule="evenodd" d="M4.23853 13.6344C4.23853 18.2805 7.49458 21.3706 12.1407 21.3706C16.7869 21.3706 19.7615 18.0648 19.7615 13.4186C19.7615 8.77248 12.1407 2.62939 12.1407 2.62939C12.1407 2.62939 4.23853 8.9882 4.23853 13.6344ZM12.0899 7.71145C15.5827 7.81912 18.3233 10.1545 18.3107 13.9322C18.298 17.7099 15.4063 20.3701 12.0899 20.153C8.5534 19.9215 5.7914 17.5385 5.86912 13.9322C5.94684 10.326 8.55144 7.76658 12.0899 7.71145Z" fill="white"/>
<path d="M12.0899 10.7721C10.3534 10.7721 8.92973 12.1957 8.92973 13.9322C8.92973 15.6687 10.3534 17.0924 12.0899 17.0924C13.8264 17.0924 15.25 15.6687 15.25 13.9322C15.25 12.1957 13.8264 10.7721 12.0899 10.7721ZM12.0899 12.2721C13.0157 12.2721 13.75 13.0064 13.75 13.9322C13.75 14.858 13.0157 15.5924 12.0899 15.5924C11.1641 15.5924 10.4297 14.858 10.4297 13.9322C10.4297 13.0064 11.1641 12.2721 12.0899 12.2721Z" fill="white"/>
</svg>
